<svg xmlns="http://www.w3.org/2000/svg" viewBox="0 0 1200 630">
  <defs>
    <pattern id="grid" width="54" height="54" patternUnits="userSpaceOnUse">
      <path d="M54 0H0V54" fill="none" stroke="#27272a" stroke-width="1"/>
    </pattern>
  </defs>
  <rect width="1200" height="630" fill="#09090b"/>
  <rect width="1200" height="630" fill="url(#grid)" opacity="0.55"/>
  <g transform="translate(88 100) scale(3.2)" fill="none" stroke="#fafafa" stroke-width="7.5" stroke-linecap="butt" stroke-linejoin="round">
    <path d="M39 39c6 8 14 10 19 2 5-8 2-17-5-20"/>
    <path d="M29 22c-5-7-15-7-20 1-5 8-2 20 8 24 9 3 15-3 21-10l8-10c4-5 8-7 11-4 3 3 3 7 3 10V9"/>
  </g>
  <text x="88" y="400" fill="#fafafa" font-family="Arial, Helvetica, sans-serif" font-size="80" font-weight="700" letter-spacing="-3">Optidigi</text>
  <text x="92" y="475" fill="#a1a1aa" font-family="Arial, Helvetica, sans-serif" font-size="32">Software, AI en automatisering</text>
  <text x="92" y="520" fill="#a1a1aa" font-family="Arial, Helvetica, sans-serif" font-size="32">voor betere bedrijfsprocessen.</text>
</svg>
